<svg width="65" height="37" viewBox="0 0 65 37" fill="none" xmlns="http://www.w3.org/2000/svg">
<g clip-path="url(#clip0_3_92833)">
<path d="M39.9061 14.3882H36.78V27.0338H39.9061V14.3882Z" fill="#501665"/>
<path d="M25.4016 23.8338H6.39415C5.08745 23.8338 4.02199 22.7432 4.02199 21.4055V14.3882H0.906006V22.0023C0.906006 23.4737 1.77044 27.1676 7.32894 27.0544H25.4519L25.4117 23.8338H25.4016Z" fill="#501665"/>
<path d="M31.6436 23.9779C29.9148 23.9779 28.5176 22.5477 28.5176 20.7779C28.5176 19.0081 29.9148 17.5779 31.6436 17.5779H34.9204V14.3882H31.6436C28.1859 14.3882 25.4016 17.2486 25.4016 20.7779C25.4016 24.1117 27.8843 26.8281 31.0506 27.1264L30.2565 28.5773L33.1614 30.3882L34.9305 27.1676V23.9676H31.6537L31.6436 23.9779Z" fill="#D7702D"/>
<path d="M7.07766 17.8969C8.0225 17.8969 8.78642 17.1149 8.78642 16.1477C8.78642 15.1805 8.01245 14.4088 7.07766 14.4088C6.14287 14.4088 5.3689 15.1908 5.3689 16.158C5.3689 17.1252 6.13281 17.9072 7.07766 17.9072V17.8969Z" fill="#501665"/>
<path d="M10.8872 17.8969C11.8321 17.8969 12.596 17.1149 12.596 16.1477C12.596 15.1805 11.822 14.4088 10.8872 14.4088C9.95244 14.4088 9.17847 15.1908 9.17847 16.158C9.17847 17.1252 9.94239 17.9072 10.8872 17.9072V17.8969Z" fill="#501665"/>
</g>
<path d="M48.5662 10.7373C48.5662 10.7373 48.7336 8.52367 50.241 6.81894C50.7674 6.23373 51.4373 5.80118 52.1551 5.5213C54.8109 4.50355 55.6243 3.81657 56.5335 2.87515C57.4906 1.88284 57.6102 1.57751 58.0887 0C58.0887 2.49349 57.1317 4.45266 57.1317 4.45266C57.1317 4.45266 55.5286 7.50592 54.8587 8.01479C54.2366 8.16746 50.6477 8.77811 48.5662 10.7373Z" fill="#501665"/>
<path d="M51.0306 29.9478C51.0306 29.9478 53.7103 25.3679 51.3655 23.0016C51.1024 23.2815 49.284 23.6886 47.992 22.7472C46.7957 21.8567 46.5325 20.0502 47.3938 18.778C47.7527 18.2437 48.2791 17.9383 48.7815 17.7602C50.0735 17.3022 51.5091 17.6585 52.4901 18.6762C53.2557 19.465 54.0453 20.788 54.2606 22.9762C54.3802 24.2484 54.2606 25.5715 53.806 26.7673C52.825 29.4389 51.0306 29.9478 51.0306 29.9478Z" fill="#D7702D"/>
<path d="M46.2931 20.8389C46.2931 20.8389 45.2882 16.8951 51.6047 15.6993C52.155 15.5975 52.7053 15.4703 53.2556 15.2667C62.6107 11.7809 64.0941 2.49395 64.0941 2.49395C64.0941 2.49395 60.888 7.86259 56.7488 8.37147C52.6096 8.88035 48.6618 10.1271 47.4894 13.8928C46.8912 12.6206 47.5612 9.10934 48.2311 7.88804C49.236 6.10697 48.7575 2.44307 45.8146 2.49395C44.69 2.67206 43.8526 1.62887 43.7809 1.73064C43.7091 1.83242 46.7238 3.76614 44.8575 7.6336C42.9913 11.5011 38.5889 15.5466 46.2931 20.8389Z" fill="#C17BFF"/>
<path d="M57.945 36.5373C57.945 36.5373 55.4806 34.5272 57.945 30.2781C60.4094 26.029 58.4235 23.2047 57.945 22.0089C58.3518 24.3243 55.9352 28.2172 54.9064 29.8456C54.2843 30.8124 54.1408 32.0846 54.6193 33.1533C55.5046 35.1633 57.945 36.5373 57.945 36.5373Z" fill="#501665"/>
<path d="M55.6483 14.9355C55.2655 15.2154 53.3035 16.1568 49.4514 16.8692C53.3035 16.2331 55.0501 20.2787 55.1219 22.3142C55.1937 24.3497 55.0501 26.945 53.2557 29.3367C51.5091 32.0846 54.4759 34.2982 54.4759 34.2982C54.4759 34.2982 52.9446 32.2627 53.8538 30.3544C54.763 28.4462 56.1507 26.8432 56.7489 24.6805C56.9881 23.7899 57.1078 22.7722 57.1556 21.8817C57.2274 20.6349 57.0838 19.3882 56.7967 18.1923C56.6292 17.5053 56.5096 16.7675 55.6483 14.9355Z" fill="#501665"/>
<defs>
<clipPath id="clip0_3_92833">
<rect width="39" height="16" fill="white" transform="translate(0.906006 14.3882)"/>
</clipPath>
</defs>
</svg>
